<svg width="30" height="30" viewBox="0 0 40 40" fill="none" xmlns="http://www.w3.org/2000/svg">
<path d="M19.1662 30C19.8862 29.9991 20.5838 29.7499 21.1415 29.2945C21.6991 28.8391 22.0827 28.2053 22.2274 27.5H16.1038C16.249 28.2053 16.6328 28.839 17.1906 29.2944C17.7484 29.7497 18.4461 29.9989 19.1662 30Z" fill="#4285F4"/>
<path d="M25.0102 20H25.0001C24.0179 20.0022 23.051 19.7559 22.1896 19.2839C21.3283 18.8118 20.6003 18.1295 20.0737 17.3004C19.547 16.4713 19.2388 15.5224 19.1776 14.542C19.1165 13.5617 19.3044 12.5818 19.7239 11.6937C19.5402 11.6763 19.3549 11.665 19.1663 11.665C17.6191 11.665 16.1353 12.2797 15.0413 13.3737C13.9472 14.4677 13.3326 15.9516 13.3326 17.4988V19.8224C13.3328 20.6374 13.1547 21.4425 12.811 22.1814C12.4672 22.9204 11.966 23.5752 11.3425 24.1C11.1319 24.2801 10.9768 24.5165 10.8956 24.7815C10.8144 25.0464 10.8103 25.3291 10.8838 25.5963C11.0627 26.25 11.7063 26.6666 12.3838 26.6666H25.9463C26.6562 26.6666 27.3263 26.2067 27.4698 25.5115C27.5246 25.251 27.5072 24.9805 27.4195 24.7292C27.3318 24.4778 27.1771 24.2552 26.972 24.0854C26.3761 23.5807 25.8933 22.956 25.5553 22.252C25.2172 21.548 25.0315 20.7806 25.0102 20Z" fill="white"/>
<path d="M29.1662 14.1663C29.1662 14.9903 28.9219 15.7958 28.4641 16.4809C28.0063 17.166 27.3556 17.7 26.5943 18.0154C25.8331 18.3307 24.9954 18.4132 24.1872 18.2524C23.379 18.0917 22.6367 17.6949 22.054 17.1122C21.4713 16.5296 21.0746 15.7872 20.9138 14.979C20.753 14.1709 20.8355 13.3332 21.1509 12.5719C21.4662 11.8106 22.0002 11.1599 22.6853 10.7021C23.3705 10.2443 24.176 10 25 10C25.5471 9.99999 26.0889 10.1077 26.5944 10.3171C27.0998 10.5265 27.5591 10.8334 27.946 11.2202C28.3329 11.6071 28.6398 12.0664 28.8491 12.5719C29.0585 13.0774 29.1663 13.6191 29.1662 14.1663Z" fill="#4285F4"/>
</svg>
