<svg width="24" height="24" viewBox="0 0 24 24" fill="none" xmlns="http://www.w3.org/2000/svg">
<path d="M23.5721 0.231658C23.4377 0.123736 23.2787 0.0504833 23.109 0.0183848C22.9394 -0.0137136 22.7645 -0.0036678 22.5997 0.0476331L12.0097 2.9533L1.40032 0.0476331C1.23553 -0.0036678 1.06059 -0.0137136 0.890968 0.0183848C0.72135 0.0504833 0.562293 0.123736 0.427877 0.231658C0.295909 0.333905 0.18887 0.464557 0.114773 0.613836C0.0406753 0.763115 0.00143884 0.927153 0 1.09367V20.9394C0.000454644 21.1931 0.0902223 21.4387 0.253684 21.6334C0.417146 21.828 0.643956 21.9595 0.894652 22.0048L11.8152 24H12.2042L23.1053 22.0048C23.356 21.9595 23.5829 21.828 23.7463 21.6334C23.9098 21.4387 23.9995 21.1931 24 20.9394V1.09367C23.9986 0.927153 23.9593 0.763115 23.8852 0.613836C23.8111 0.464557 23.7041 0.333905 23.5721 0.231658ZM2.19773 2.51745L10.9498 4.90009V21.627L2.19773 20.0289V2.51745ZM21.8217 20.0289L13.0697 21.627V4.90009L21.8217 2.51745V20.0289Z" fill="#3F4662"/>
</svg>
