<svg width="24" height="24" viewBox="0 0 24 24" fill="none" xmlns="http://www.w3.org/2000/svg">
<path fill-rule="evenodd" clip-rule="evenodd" d="M22.74 3.56915C22.6205 3.46451 22.4655 3.41257 22.3087 3.42467C22.152 3.43676 22.0063 3.51189 21.9034 3.6337C21.8005 3.7555 21.7487 3.9141 21.7593 4.07491C21.7699 4.23573 21.842 4.38572 21.96 4.4922C22.2222 4.70539 22.434 4.97668 22.5795 5.28573C22.725 5.59479 22.8003 5.9336 22.8 6.27678V20.5534C22.7912 21.1544 22.5545 21.7283 22.14 22.1534C21.7256 22.5784 21.1661 22.8212 20.58 22.8302H3.4202C2.83417 22.8212 2.27462 22.5784 1.86019 22.1534C1.44577 21.7283 1.20904 21.1544 1.20022 20.5534V6.27678C1.20904 5.67574 1.44577 5.10185 1.86019 4.6768C2.27462 4.25175 2.83417 4.00896 3.4202 3.99991H12.4201C12.5792 3.99991 12.7318 3.93507 12.8444 3.81967C12.9569 3.70427 13.0201 3.54774 13.0201 3.38454C13.0201 3.22133 12.9569 3.06481 12.8444 2.94941C12.7318 2.834 12.5792 2.76917 12.4201 2.76917H3.4202C2.96963 2.76381 2.52256 2.85087 2.10527 3.02525C1.68798 3.19962 1.30888 3.45779 0.990263 3.78457C0.671642 4.11136 0.419926 4.50017 0.249908 4.92816C0.0798893 5.35614 -0.0050004 5.81467 0.00022759 6.27678V20.4918C0.0206274 22.4204 1.53981 23.9785 3.4202 23.9995H20.52C20.9692 24.0076 21.4155 23.9249 21.8334 23.7561C22.2514 23.5874 22.6329 23.3358 22.956 23.0158C23.2792 22.6958 23.5377 22.3136 23.7169 21.8911C23.896 21.4686 23.9922 21.014 24 20.5534V6.27678C23.9941 5.75874 23.8783 5.24822 23.6607 4.78067C23.4431 4.31311 23.129 3.89971 22.74 3.56915ZM16.8601 20.9226C16.9137 21.0248 16.9909 21.112 17.0851 21.1764C17.1793 21.2408 17.2874 21.2804 17.4001 21.2918C17.5158 21.293 17.6292 21.2584 17.7255 21.1925C17.8218 21.1267 17.8966 21.0326 17.9401 20.9226L19.74 17.1688C19.7878 17.0966 19.809 17.0094 19.8 16.9227V2.46148C19.8 1.80866 19.5472 1.18257 19.0971 0.720951C18.647 0.259334 18.0366 0 17.4001 0C16.7635 0 16.1531 0.259334 15.703 0.720951C15.2529 1.18257 15.0001 1.80866 15.0001 2.46148V16.9227C14.9917 16.9657 14.9928 17.0101 15.0032 17.0527C15.0135 17.0952 15.033 17.1349 15.0601 17.1688L16.8601 20.9226ZM17.4001 19.2611L16.5601 17.5381H18.2401L17.4001 19.2611ZM16.2001 2.46148C16.2001 2.13507 16.3265 1.82203 16.5515 1.59122C16.7766 1.36041 17.0818 1.23074 17.4001 1.23074C17.7183 1.23074 18.0235 1.36041 18.2486 1.59122C18.4736 1.82203 18.6001 2.13507 18.6001 2.46148V7.75367H16.2001V2.46148ZM16.2001 8.98441H18.6001V10.2152H16.2001V8.98441ZM16.2001 11.5074H18.6001V16.3073H16.2001V11.5074ZM11.9401 9.969H3.66019C3.50106 9.969 3.34845 10.0338 3.23593 10.1492C3.12341 10.2646 3.0602 10.4212 3.0602 10.5844C3.0602 10.7476 3.12341 10.9041 3.23593 11.0195C3.34845 11.1349 3.50106 11.1997 3.66019 11.1997H12.0001C12.0757 11.198 12.1502 11.1805 12.2189 11.1481C12.2876 11.1158 12.3492 11.0694 12.3998 11.0118C12.4504 10.9541 12.4889 10.8865 12.5131 10.813C12.5372 10.7394 12.5464 10.6617 12.5401 10.5844C12.5449 10.5023 12.5327 10.4201 12.5042 10.3432C12.4758 10.2663 12.4318 10.1964 12.3751 10.1383C12.3184 10.0801 12.2503 10.035 12.1753 10.0058C12.1003 9.9766 12.0202 9.96407 11.9401 9.969ZM11.9401 12.4305H3.66019C3.50106 12.4305 3.34845 12.4953 3.23593 12.6107C3.12341 12.7261 3.0602 12.8826 3.0602 13.0459C3.0602 13.2091 3.12341 13.3656 3.23593 13.481C3.34845 13.5964 3.50106 13.6612 3.66019 13.6612H12.0001C12.0757 13.6595 12.1502 13.642 12.2189 13.6096C12.2876 13.5773 12.3492 13.5309 12.3998 13.4732C12.4504 13.4156 12.4889 13.3479 12.5131 13.2744C12.5372 13.2009 12.5464 13.1231 12.5401 13.0459C12.5449 12.9638 12.5327 12.8815 12.5042 12.8046C12.4758 12.7278 12.4318 12.6579 12.3751 12.5998C12.3184 12.5416 12.2503 12.4964 12.1753 12.4673C12.1003 12.4381 12.0202 12.4255 11.9401 12.4305ZM11.9401 14.892H3.66019C3.50106 14.892 3.34845 14.9568 3.23593 15.0722C3.12341 15.1876 3.0602 15.3441 3.0602 15.5073C3.0602 15.6705 3.12341 15.8271 3.23593 15.9425C3.34845 16.0579 3.50106 16.1227 3.66019 16.1227H12.0001C12.0757 16.121 12.1502 16.1034 12.2189 16.0711C12.2876 16.0388 12.3492 15.9924 12.3998 15.9347C12.4504 15.8771 12.4889 15.8094 12.5131 15.7359C12.5372 15.6624 12.5464 15.5846 12.5401 15.5073C12.5449 15.4252 12.5327 15.343 12.5042 15.2661C12.4758 15.1892 12.4318 15.1194 12.3751 15.0612C12.3184 15.0031 12.2503 14.9579 12.1753 14.9287C12.1003 14.8996 12.0202 14.887 11.9401 14.892Z" fill="#3F4662"/>
</svg>
