<svg width="24" height="18" viewBox="0 0 24 18" fill="none" xmlns="http://www.w3.org/2000/svg">
<path d="M15.5279 18H2.26792C1.9705 18.0012 1.67579 17.938 1.40068 17.8138C1.12558 17.6897 0.875493 17.5071 0.664783 17.2766C0.454073 17.046 0.286881 16.772 0.172801 16.4704C0.0587212 16.1687 -2.19979e-06 15.8452 0 15.5185V2.48144C0.0022988 1.82244 0.242254 1.1913 0.667323 0.726215C1.09239 0.261127 1.66793 -4.83693e-06 2.26792 0H15.5279C16.1279 -4.83693e-06 16.7034 0.261127 17.1285 0.726215C17.5535 1.1913 17.7935 1.82244 17.7958 2.48144V3.43584L22.6966 0.410392C22.8287 0.326626 22.9785 0.282526 23.1311 0.282526C23.2836 0.282526 23.4334 0.326626 23.5655 0.410392C23.6981 0.494478 23.8081 0.615557 23.8844 0.761368C23.9607 0.907179 24.0006 1.07254 24 1.24072V14.8886C23.9991 15.0557 23.9583 15.2195 23.8816 15.3638C23.805 15.5081 23.6952 15.6278 23.5633 15.7109C23.4313 15.794 23.2818 15.8376 23.1298 15.8373C22.9777 15.837 22.8283 15.7929 22.6966 15.7094L17.7958 12.6076V15.5567C17.7866 16.2099 17.5434 16.8327 17.1188 17.2901C16.6942 17.7475 16.1226 18.0026 15.5279 18ZM2.26792 1.9088C2.19873 1.90753 2.13 1.92141 2.06574 1.94962C2.00147 1.97783 1.94297 2.01981 1.89363 2.07311C1.8443 2.12641 1.80511 2.18997 1.77837 2.26007C1.75163 2.33018 1.73786 2.40543 1.73787 2.48144V15.5185C1.73786 15.5946 1.75163 15.6698 1.77837 15.7399C1.80511 15.81 1.8443 15.8736 1.89363 15.9269C1.94297 15.9802 2.00147 16.0222 2.06574 16.0504C2.13 16.0786 2.19873 16.0924 2.26792 16.0912H15.5279C15.5971 16.0924 15.6658 16.0786 15.7301 16.0504C15.7943 16.0222 15.8528 15.9802 15.9022 15.9269C15.9515 15.8736 15.9907 15.81 16.0174 15.7399C16.0442 15.6698 16.0579 15.5946 16.0579 15.5185V10.9088C16.0588 10.7417 16.0997 10.5779 16.1763 10.4336C16.2529 10.2893 16.3627 10.1696 16.4946 10.0866C16.6266 10.0035 16.7761 9.95988 16.9282 9.96013C17.0803 9.96039 17.2296 10.0045 17.3613 10.088L22.2621 13.1898V2.85366L17.3613 5.95546C17.2296 6.03898 17.0803 6.08308 16.9282 6.08333C16.7761 6.08358 16.6266 6.03999 16.4946 5.9569C16.3627 5.87381 16.2529 5.75415 16.1763 5.60986C16.0997 5.46557 16.0588 5.30171 16.0579 5.13467V2.48144C16.0579 2.40543 16.0442 2.33018 16.0174 2.26007C15.9907 2.18997 15.9515 2.12641 15.9022 2.07311C15.8528 2.01981 15.7943 1.97783 15.7301 1.94962C15.6658 1.92141 15.5971 1.90753 15.5279 1.9088H2.26792Z" fill="#3F4662"/>
</svg>
