<svg width="23" height="23" viewBox="0 0 23 23" fill="none" xmlns="http://www.w3.org/2000/svg">
<mask id="path-1-inside-1_53_28" fill="white">
<path fill-rule="evenodd" clip-rule="evenodd" d="M4.44954 1.30654e-07H6.09213C6.66828 -4.66101e-06 7.13297 -9.60527e-06 7.51122 0.0257983C7.90012 0.0523346 8.24406 0.108277 8.5697 0.243163C9.35242 0.567381 9.97429 1.18924 10.2985 1.97196C10.4334 2.2976 10.4893 2.64155 10.5159 3.03044C10.5417 3.4087 10.5417 3.87339 10.5417 4.44954V6.09213C10.5417 6.66828 10.5417 7.13302 10.5159 7.51122C10.4893 7.90012 10.4334 8.24406 10.2985 8.5697C9.97429 9.35242 9.35242 9.97429 8.5697 10.2985C8.24406 10.4334 7.90012 10.4893 7.51122 10.5159C7.13297 10.5417 6.66828 10.5417 6.09213 10.5417H4.44954C3.87339 10.5417 3.4087 10.5417 3.03044 10.5159C2.64155 10.4893 2.2976 10.4334 1.97196 10.2985C1.18924 9.97429 0.567381 9.35242 0.243163 8.5697C0.108277 8.24406 0.0523346 7.90012 0.0257983 7.51122C-9.60527e-06 7.13297 -4.66101e-06 6.66828 1.30654e-07 6.09213V4.44954C-4.66101e-06 3.87339 -9.60527e-06 3.4087 0.0257983 3.03044C0.0523346 2.64155 0.108277 2.2976 0.243163 1.97196C0.567381 1.18924 1.18924 0.567381 1.97196 0.243163C2.2976 0.108277 2.64155 0.0523346 3.03044 0.0257983C3.4087 -9.60527e-06 3.87339 -4.66101e-06 4.44954 1.30654e-07ZM3.11741 1.3006C2.79354 1.32269 2.60494 1.36404 2.46095 1.42365C1.99132 1.61819 1.61819 1.99132 1.42365 2.46095C1.36404 2.60494 1.32269 2.79354 1.3006 3.11741C1.27813 3.44703 1.27779 3.86812 1.27779 4.47221V6.06946C1.27779 6.67355 1.27813 7.09464 1.3006 7.42426C1.32269 7.74813 1.36404 7.93672 1.42365 8.08071C1.61819 8.55035 1.99132 8.92347 2.46095 9.11801C2.60494 9.17762 2.79354 9.21898 3.11741 9.24106C3.44703 9.26354 3.86812 9.26387 4.47221 9.26387H6.06946C6.67355 9.26387 7.09464 9.26354 7.42426 9.24106C7.74813 9.21898 7.93672 9.17762 8.08071 9.11801C8.55035 8.92347 8.92347 8.55035 9.11801 8.08071C9.17762 7.93672 9.21898 7.74813 9.24106 7.42426C9.26354 7.09464 9.26387 6.67355 9.26387 6.06946V4.47221C9.26387 3.86812 9.26354 3.44703 9.24106 3.11741C9.21898 2.79354 9.17762 2.60494 9.11801 2.46095C8.92347 1.99132 8.55035 1.61819 8.08071 1.42365C7.93672 1.36404 7.74813 1.32269 7.42426 1.3006C7.09464 1.27813 6.67355 1.27779 6.06946 1.27779H4.47221C3.86812 1.27779 3.44703 1.27813 3.11741 1.3006ZM4.44954 12.4583H6.09213C6.66828 12.4583 7.13297 12.4583 7.51122 12.4841C7.90012 12.5107 8.24406 12.5666 8.5697 12.7015C9.35242 13.0257 9.97429 13.6476 10.2985 14.4303C10.4334 14.7559 10.4893 15.0999 10.5159 15.4888C10.5417 15.867 10.5417 16.3317 10.5417 16.9079V18.5505C10.5417 19.1266 10.5417 19.5914 10.5159 19.9696C10.4893 20.3584 10.4334 20.7024 10.2985 21.028C9.97429 21.8108 9.35242 22.4326 8.5697 22.7568C8.24406 22.8917 7.90012 22.9477 7.51122 22.9742C7.13297 23 6.66828 23 6.09213 23H4.44954C3.87339 23 3.4087 23 3.03044 22.9742C2.64155 22.9477 2.2976 22.8917 1.97196 22.7568C1.18924 22.4326 0.567381 21.8108 0.243163 21.028C0.108277 20.7024 0.0523346 20.3584 0.0257983 19.9696C-9.60527e-06 19.5913 -4.66101e-06 19.1266 1.30654e-07 18.5505V16.9079C-4.66101e-06 16.3317 -9.60527e-06 15.867 0.0257983 15.4888C0.0523346 15.0999 0.108277 14.7559 0.243163 14.4303C0.567381 13.6476 1.18924 13.0257 1.97196 12.7015C2.2976 12.5666 2.64155 12.5107 3.03044 12.4841C3.4087 12.4583 3.87339 12.4583 4.44954 12.4583ZM3.11741 13.7589C2.79354 13.781 2.60494 13.8224 2.46095 13.882C1.99132 14.0765 1.61819 14.4497 1.42365 14.9193C1.36404 15.0633 1.32269 15.2519 1.3006 15.5757C1.27813 15.9054 1.27779 16.3265 1.27779 16.9305V18.5278C1.27779 19.1319 1.27813 19.553 1.3006 19.8826C1.32269 20.2065 1.36404 20.3951 1.42365 20.539C1.61819 21.0087 1.99132 21.3818 2.46095 21.5763C2.60494 21.636 2.79354 21.6773 3.11741 21.6994C3.44703 21.7219 3.86812 21.7222 4.47221 21.7222H6.06946C6.67355 21.7222 7.09464 21.7219 7.42426 21.6994C7.74813 21.6773 7.93672 21.636 8.08071 21.5763C8.55035 21.3818 8.92347 21.0087 9.11801 20.539C9.17762 20.3951 9.21898 20.2065 9.24106 19.8826C9.26354 19.553 9.26387 19.1319 9.26387 18.5278V16.9305C9.26387 16.3265 9.26354 15.9054 9.24106 15.5757C9.21898 15.2519 9.17762 15.0633 9.11801 14.9193C8.92347 14.4497 8.55035 14.0765 8.08071 13.882C7.93672 13.8224 7.74813 13.781 7.42426 13.7589C7.09464 13.7365 6.67355 13.7361 6.06946 13.7361H4.47221C3.86812 13.7361 3.44703 13.7365 3.11741 13.7589ZM16.9079 1.30654e-07H18.5505C19.1266 -4.66101e-06 19.5913 -9.60527e-06 19.9696 0.0257983C20.3584 0.0523346 20.7024 0.108277 21.028 0.243163C21.8108 0.567381 22.4326 1.18924 22.7568 1.97196C22.8917 2.2976 22.9477 2.64155 22.9742 3.03044C23 3.4087 23 3.87339 23 4.44954V6.09213C23 6.66828 23 7.13302 22.9742 7.51122C22.9477 7.90012 22.8917 8.24406 22.7568 8.5697C22.4326 9.35242 21.8108 9.97429 21.028 10.2985C20.7024 10.4334 20.3584 10.4893 19.9696 10.5159C19.5913 10.5417 19.1266 10.5417 18.5505 10.5417H16.9079C16.3317 10.5417 15.867 10.5417 15.4888 10.5159C15.0999 10.4893 14.7559 10.4334 14.4303 10.2985C13.6476 9.97429 13.0257 9.35242 12.7015 8.5697C12.5666 8.24406 12.5107 7.90012 12.4841 7.51122C12.4583 7.13297 12.4583 6.66828 12.4583 6.09213V4.44954C12.4583 3.87339 12.4583 3.4087 12.4841 3.03044C12.5107 2.64155 12.5666 2.2976 12.7015 1.97196C13.0257 1.18924 13.6476 0.567381 14.4303 0.243163C14.7559 0.108277 15.0999 0.0523346 15.4888 0.0257983C15.867 -9.60527e-06 16.3317 -4.66101e-06 16.9079 1.30654e-07ZM15.5757 1.3006C15.2519 1.32269 15.0633 1.36404 14.9193 1.42365C14.4497 1.61819 14.0765 1.99132 13.882 2.46095C13.8224 2.60494 13.781 2.79354 13.7589 3.11741C13.7365 3.44703 13.7361 3.86812 13.7361 4.47221V6.06946C13.7361 6.67355 13.7365 7.09464 13.7589 7.42426C13.781 7.74813 13.8224 7.93672 13.882 8.08071C14.0765 8.55035 14.4497 8.92347 14.9193 9.11801C15.0633 9.17762 15.2519 9.21898 15.5757 9.24106C15.9054 9.26354 16.3265 9.26387 16.9305 9.26387H18.5278C19.1319 9.26387 19.553 9.26354 19.8826 9.24106C20.2065 9.21898 20.3951 9.17762 20.539 9.11801C21.0087 8.92347 21.3818 8.55035 21.5763 8.08071C21.636 7.93672 21.6773 7.74813 21.6994 7.42426C21.7219 7.09464 21.7222 6.67355 21.7222 6.06946V4.47221C21.7222 3.86812 21.7219 3.44703 21.6994 3.11741C21.6773 2.79354 21.636 2.60494 21.5763 2.46095C21.3818 1.99132 21.0087 1.61819 20.539 1.42365C20.3951 1.36404 20.2065 1.32269 19.8826 1.3006C19.553 1.27813 19.1319 1.27779 18.5278 1.27779H16.9305C16.3265 1.27779 15.9054 1.27813 15.5757 1.3006ZM16.9079 12.4583H18.5505C19.1266 12.4583 19.5913 12.4583 19.9696 12.4841C20.3584 12.5107 20.7024 12.5666 21.028 12.7015C21.8108 13.0257 22.4326 13.6476 22.7568 14.4303C22.8917 14.7559 22.9477 15.0999 22.9742 15.4888C23 15.867 23 16.3317 23 16.9079V18.5505C23 19.1266 23 19.5914 22.9742 19.9696C22.9477 20.3584 22.8917 20.7024 22.7568 21.028C22.4326 21.8108 21.8108 22.4326 21.028 22.7568C20.7024 22.8917 20.3584 22.9477 19.9696 22.9742C19.5913 23 19.1266 23 18.5505 23H16.9079C16.3317 23 15.867 23 15.4888 22.9742C15.0999 22.9477 14.7559 22.8917 14.4303 22.7568C13.6476 22.4326 13.0257 21.8108 12.7015 21.028C12.5666 20.7024 12.5107 20.3584 12.4841 19.9696C12.4583 19.5913 12.4583 19.1266 12.4583 18.5505V16.9079C12.4583 16.3317 12.4583 15.867 12.4841 15.4888C12.5107 15.0999 12.5666 14.7559 12.7015 14.4303C13.0257 13.6476 13.6476 13.0257 14.4303 12.7015C14.7559 12.5666 15.0999 12.5107 15.4888 12.4841C15.867 12.4583 16.3317 12.4583 16.9079 12.4583ZM15.5757 13.7589C15.2519 13.781 15.0633 13.8224 14.9193 13.882C14.4497 14.0765 14.0765 14.4497 13.882 14.9193C13.8224 15.0633 13.781 15.2519 13.7589 15.5757C13.7365 15.9054 13.7361 16.3265 13.7361 16.9305V18.5278C13.7361 19.1319 13.7365 19.553 13.7589 19.8826C13.781 20.2065 13.8224 20.3951 13.882 20.539C14.0765 21.0087 14.4497 21.3818 14.9193 21.5763C15.0633 21.636 15.2519 21.6773 15.5757 21.6994C15.9054 21.7219 16.3265 21.7222 16.9305 21.7222H18.5278C19.1319 21.7222 19.553 21.7219 19.8826 21.6994C20.2065 21.6773 20.3951 21.636 20.539 21.5763C21.0087 21.3818 21.3818 21.0087 21.5763 20.539C21.636 20.3951 21.6773 20.2065 21.6994 19.8826C21.7219 19.553 21.7222 19.1319 21.7222 18.5278V16.9305C21.7222 16.3265 21.7219 15.9054 21.6994 15.5757C21.6773 15.2519 21.636 15.0633 21.5763 14.9193C21.3818 14.4497 21.0087 14.0765 20.539 13.882C20.3951 13.8224 20.2065 13.781 19.8826 13.7589C19.553 13.7365 19.1319 13.7361 18.5278 13.7361H16.9305C16.3265 13.7361 15.9054 13.7365 15.5757 13.7589Z"/>
</mask>
<path fill-rule="evenodd" clip-rule="evenodd" d="M4.44954 1.30654e-07H6.09213C6.66828 -4.66101e-06 7.13297 -9.60527e-06 7.51122 0.0257983C7.90012 0.0523346 8.24406 0.108277 8.5697 0.243163C9.35242 0.567381 9.97429 1.18924 10.2985 1.97196C10.4334 2.2976 10.4893 2.64155 10.5159 3.03044C10.5417 3.4087 10.5417 3.87339 10.5417 4.44954V6.09213C10.5417 6.66828 10.5417 7.13302 10.5159 7.51122C10.4893 7.90012 10.4334 8.24406 10.2985 8.5697C9.97429 9.35242 9.35242 9.97429 8.5697 10.2985C8.24406 10.4334 7.90012 10.4893 7.51122 10.5159C7.13297 10.5417 6.66828 10.5417 6.09213 10.5417H4.44954C3.87339 10.5417 3.4087 10.5417 3.03044 10.5159C2.64155 10.4893 2.2976 10.4334 1.97196 10.2985C1.18924 9.97429 0.567381 9.35242 0.243163 8.5697C0.108277 8.24406 0.0523346 7.90012 0.0257983 7.51122C-9.60527e-06 7.13297 -4.66101e-06 6.66828 1.30654e-07 6.09213V4.44954C-4.66101e-06 3.87339 -9.60527e-06 3.4087 0.0257983 3.03044C0.0523346 2.64155 0.108277 2.2976 0.243163 1.97196C0.567381 1.18924 1.18924 0.567381 1.97196 0.243163C2.2976 0.108277 2.64155 0.0523346 3.03044 0.0257983C3.4087 -9.60527e-06 3.87339 -4.66101e-06 4.44954 1.30654e-07ZM3.11741 1.3006C2.79354 1.32269 2.60494 1.36404 2.46095 1.42365C1.99132 1.61819 1.61819 1.99132 1.42365 2.46095C1.36404 2.60494 1.32269 2.79354 1.3006 3.11741C1.27813 3.44703 1.27779 3.86812 1.27779 4.47221V6.06946C1.27779 6.67355 1.27813 7.09464 1.3006 7.42426C1.32269 7.74813 1.36404 7.93672 1.42365 8.08071C1.61819 8.55035 1.99132 8.92347 2.46095 9.11801C2.60494 9.17762 2.79354 9.21898 3.11741 9.24106C3.44703 9.26354 3.86812 9.26387 4.47221 9.26387H6.06946C6.67355 9.26387 7.09464 9.26354 7.42426 9.24106C7.74813 9.21898 7.93672 9.17762 8.08071 9.11801C8.55035 8.92347 8.92347 8.55035 9.11801 8.08071C9.17762 7.93672 9.21898 7.74813 9.24106 7.42426C9.26354 7.09464 9.26387 6.67355 9.26387 6.06946V4.47221C9.26387 3.86812 9.26354 3.44703 9.24106 3.11741C9.21898 2.79354 9.17762 2.60494 9.11801 2.46095C8.92347 1.99132 8.55035 1.61819 8.08071 1.42365C7.93672 1.36404 7.74813 1.32269 7.42426 1.3006C7.09464 1.27813 6.67355 1.27779 6.06946 1.27779H4.47221C3.86812 1.27779 3.44703 1.27813 3.11741 1.3006ZM4.44954 12.4583H6.09213C6.66828 12.4583 7.13297 12.4583 7.51122 12.4841C7.90012 12.5107 8.24406 12.5666 8.5697 12.7015C9.35242 13.0257 9.97429 13.6476 10.2985 14.4303C10.4334 14.7559 10.4893 15.0999 10.5159 15.4888C10.5417 15.867 10.5417 16.3317 10.5417 16.9079V18.5505C10.5417 19.1266 10.5417 19.5914 10.5159 19.9696C10.4893 20.3584 10.4334 20.7024 10.2985 21.028C9.97429 21.8108 9.35242 22.4326 8.5697 22.7568C8.24406 22.8917 7.90012 22.9477 7.51122 22.9742C7.13297 23 6.66828 23 6.09213 23H4.44954C3.87339 23 3.4087 23 3.03044 22.9742C2.64155 22.9477 2.2976 22.8917 1.97196 22.7568C1.18924 22.4326 0.567381 21.8108 0.243163 21.028C0.108277 20.7024 0.0523346 20.3584 0.0257983 19.9696C-9.60527e-06 19.5913 -4.66101e-06 19.1266 1.30654e-07 18.5505V16.9079C-4.66101e-06 16.3317 -9.60527e-06 15.867 0.0257983 15.4888C0.0523346 15.0999 0.108277 14.7559 0.243163 14.4303C0.567381 13.6476 1.18924 13.0257 1.97196 12.7015C2.2976 12.5666 2.64155 12.5107 3.03044 12.4841C3.4087 12.4583 3.87339 12.4583 4.44954 12.4583ZM3.11741 13.7589C2.79354 13.781 2.60494 13.8224 2.46095 13.882C1.99132 14.0765 1.61819 14.4497 1.42365 14.9193C1.36404 15.0633 1.32269 15.2519 1.3006 15.5757C1.27813 15.9054 1.27779 16.3265 1.27779 16.9305V18.5278C1.27779 19.1319 1.27813 19.553 1.3006 19.8826C1.32269 20.2065 1.36404 20.3951 1.42365 20.539C1.61819 21.0087 1.99132 21.3818 2.46095 21.5763C2.60494 21.636 2.79354 21.6773 3.11741 21.6994C3.44703 21.7219 3.86812 21.7222 4.47221 21.7222H6.06946C6.67355 21.7222 7.09464 21.7219 7.42426 21.6994C7.74813 21.6773 7.93672 21.636 8.08071 21.5763C8.55035 21.3818 8.92347 21.0087 9.11801 20.539C9.17762 20.3951 9.21898 20.2065 9.24106 19.8826C9.26354 19.553 9.26387 19.1319 9.26387 18.5278V16.9305C9.26387 16.3265 9.26354 15.9054 9.24106 15.5757C9.21898 15.2519 9.17762 15.0633 9.11801 14.9193C8.92347 14.4497 8.55035 14.0765 8.08071 13.882C7.93672 13.8224 7.74813 13.781 7.42426 13.7589C7.09464 13.7365 6.67355 13.7361 6.06946 13.7361H4.47221C3.86812 13.7361 3.44703 13.7365 3.11741 13.7589ZM16.9079 1.30654e-07H18.5505C19.1266 -4.66101e-06 19.5913 -9.60527e-06 19.9696 0.0257983C20.3584 0.0523346 20.7024 0.108277 21.028 0.243163C21.8108 0.567381 22.4326 1.18924 22.7568 1.97196C22.8917 2.2976 22.9477 2.64155 22.9742 3.03044C23 3.4087 23 3.87339 23 4.44954V6.09213C23 6.66828 23 7.13302 22.9742 7.51122C22.9477 7.90012 22.8917 8.24406 22.7568 8.5697C22.4326 9.35242 21.8108 9.97429 21.028 10.2985C20.7024 10.4334 20.3584 10.4893 19.9696 10.5159C19.5913 10.5417 19.1266 10.5417 18.5505 10.5417H16.9079C16.3317 10.5417 15.867 10.5417 15.4888 10.5159C15.0999 10.4893 14.7559 10.4334 14.4303 10.2985C13.6476 9.97429 13.0257 9.35242 12.7015 8.5697C12.5666 8.24406 12.5107 7.90012 12.4841 7.51122C12.4583 7.13297 12.4583 6.66828 12.4583 6.09213V4.44954C12.4583 3.87339 12.4583 3.4087 12.4841 3.03044C12.5107 2.64155 12.5666 2.2976 12.7015 1.97196C13.0257 1.18924 13.6476 0.567381 14.4303 0.243163C14.7559 0.108277 15.0999 0.0523346 15.4888 0.0257983C15.867 -9.60527e-06 16.3317 -4.66101e-06 16.9079 1.30654e-07ZM15.5757 1.3006C15.2519 1.32269 15.0633 1.36404 14.9193 1.42365C14.4497 1.61819 14.0765 1.99132 13.882 2.46095C13.8224 2.60494 13.781 2.79354 13.7589 3.11741C13.7365 3.44703 13.7361 3.86812 13.7361 4.47221V6.06946C13.7361 6.67355 13.7365 7.09464 13.7589 7.42426C13.781 7.74813 13.8224 7.93672 13.882 8.08071C14.0765 8.55035 14.4497 8.92347 14.9193 9.11801C15.0633 9.17762 15.2519 9.21898 15.5757 9.24106C15.9054 9.26354 16.3265 9.26387 16.9305 9.26387H18.5278C19.1319 9.26387 19.553 9.26354 19.8826 9.24106C20.2065 9.21898 20.3951 9.17762 20.539 9.11801C21.0087 8.92347 21.3818 8.55035 21.5763 8.08071C21.636 7.93672 21.6773 7.74813 21.6994 7.42426C21.7219 7.09464 21.7222 6.67355 21.7222 6.06946V4.47221C21.7222 3.86812 21.7219 3.44703 21.6994 3.11741C21.6773 2.79354 21.636 2.60494 21.5763 2.46095C21.3818 1.99132 21.0087 1.61819 20.539 1.42365C20.3951 1.36404 20.2065 1.32269 19.8826 1.3006C19.553 1.27813 19.1319 1.27779 18.5278 1.27779H16.9305C16.3265 1.27779 15.9054 1.27813 15.5757 1.3006ZM16.9079 12.4583H18.5505C19.1266 12.4583 19.5913 12.4583 19.9696 12.4841C20.3584 12.5107 20.7024 12.5666 21.028 12.7015C21.8108 13.0257 22.4326 13.6476 22.7568 14.4303C22.8917 14.7559 22.9477 15.0999 22.9742 15.4888C23 15.867 23 16.3317 23 16.9079V18.5505C23 19.1266 23 19.5914 22.9742 19.9696C22.9477 20.3584 22.8917 20.7024 22.7568 21.028C22.4326 21.8108 21.8108 22.4326 21.028 22.7568C20.7024 22.8917 20.3584 22.9477 19.9696 22.9742C19.5913 23 19.1266 23 18.5505 23H16.9079C16.3317 23 15.867 23 15.4888 22.9742C15.0999 22.9477 14.7559 22.8917 14.4303 22.7568C13.6476 22.4326 13.0257 21.8108 12.7015 21.028C12.5666 20.7024 12.5107 20.3584 12.4841 19.9696C12.4583 19.5913 12.4583 19.1266 12.4583 18.5505V16.9079C12.4583 16.3317 12.4583 15.867 12.4841 15.4888C12.5107 15.0999 12.5666 14.7559 12.7015 14.4303C13.0257 13.6476 13.6476 13.0257 14.4303 12.7015C14.7559 12.5666 15.0999 12.5107 15.4888 12.4841C15.867 12.4583 16.3317 12.4583 16.9079 12.4583ZM15.5757 13.7589C15.2519 13.781 15.0633 13.8224 14.9193 13.882C14.4497 14.0765 14.0765 14.4497 13.882 14.9193C13.8224 15.0633 13.781 15.2519 13.7589 15.5757C13.7365 15.9054 13.7361 16.3265 13.7361 16.9305V18.5278C13.7361 19.1319 13.7365 19.553 13.7589 19.8826C13.781 20.2065 13.8224 20.3951 13.882 20.539C14.0765 21.0087 14.4497 21.3818 14.9193 21.5763C15.0633 21.636 15.2519 21.6773 15.5757 21.6994C15.9054 21.7219 16.3265 21.7222 16.9305 21.7222H18.5278C19.1319 21.7222 19.553 21.7219 19.8826 21.6994C20.2065 21.6773 20.3951 21.636 20.539 21.5763C21.0087 21.3818 21.3818 21.0087 21.5763 20.539C21.636 20.3951 21.6773 20.2065 21.6994 19.8826C21.7219 19.553 21.7222 19.1319 21.7222 18.5278V16.9305C21.7222 16.3265 21.7219 15.9054 21.6994 15.5757C21.6773 15.2519 21.636 15.0633 21.5763 14.9193C21.3818 14.4497 21.0087 14.0765 20.539 13.882C20.3951 13.8224 20.2065 13.781 19.8826 13.7589C19.553 13.7365 19.1319 13.7361 18.5278 13.7361H16.9305C16.3265 13.7361 15.9054 13.7365 15.5757 13.7589Z" fill="white" stroke="white" stroke-width="2" mask="url(#path-1-inside-1_53_28)"/>
</svg>
