<svg width="24" height="21" viewBox="0 0 24 21" fill="none" xmlns="http://www.w3.org/2000/svg">
<path d="M23.5791 1.45834C23.3277 1.2544 22.9988 1.15092 22.6648 1.1706C22.3307 1.19029 22.0188 1.33153 21.7974 1.56334L19.4345 4.07167L18.6384 3.24334C18.4155 3.01127 18.1019 2.87045 17.7666 2.85185C17.4313 2.83326 17.1017 2.9384 16.8504 3.14417C16.599 3.34993 16.4465 3.63946 16.4263 3.94905C16.4062 4.25864 16.5201 4.56294 16.743 4.795L18.4994 6.615C18.619 6.73732 18.7652 6.83488 18.9286 6.90124C19.0919 6.9676 19.2686 7.00126 19.4471 7C19.6244 6.99815 19.7993 6.96187 19.9604 6.89353C20.1215 6.82519 20.2652 6.72632 20.3822 6.60333L23.6802 3.10333C23.9027 2.87263 24.0169 2.56991 23.998 2.26154C23.979 1.95318 23.8284 1.66433 23.5791 1.45834ZM8.84534 9.33333C9.84502 9.33333 10.8222 9.05964 11.6535 8.54686C12.4847 8.03408 13.1325 7.30525 13.5151 6.45252C13.8976 5.5998 13.9977 4.66149 13.8027 3.75625C13.6077 2.851 13.1263 2.01948 12.4194 1.36684C11.7125 0.714192 10.8119 0.269735 9.83142 0.0896708C8.85094 -0.0903936 7.83466 0.00202198 6.91107 0.355231C5.98749 0.70844 5.19808 1.30658 4.64269 2.07401C4.0873 2.84144 3.79086 3.74369 3.79086 4.66667C3.79086 5.90435 4.32338 7.09133 5.27128 7.9665C6.21918 8.84167 7.50481 9.33333 8.84534 9.33333ZM8.84534 2.33333C9.34518 2.33333 9.83379 2.47018 10.2494 2.72657C10.665 2.98296 10.9889 3.34738 11.1802 3.77374C11.3715 4.2001 11.4215 4.66926 11.324 5.12188C11.2265 5.5745 10.9858 5.99026 10.6324 6.31658C10.2789 6.64291 9.82861 6.86514 9.33838 6.95517C8.84814 7.0452 8.34 6.99899 7.8782 6.82239C7.41641 6.64578 7.02171 6.34671 6.74401 5.963C6.46632 5.57928 6.3181 5.12816 6.3181 4.66667C6.3181 4.04783 6.58436 3.45434 7.05831 3.01675C7.53226 2.57917 8.17507 2.33333 8.84534 2.33333ZM8.84534 11.6667C6.49941 11.6667 4.24956 12.5271 2.59074 14.0586C0.931917 15.5902 0 17.6674 0 19.8333C0 20.1428 0.133131 20.4395 0.370106 20.6583C0.60708 20.8771 0.928487 21 1.26362 21C1.59875 21 1.92016 20.8771 2.15713 20.6583C2.39411 20.4395 2.52724 20.1428 2.52724 19.8333C2.52724 18.2862 3.19289 16.8025 4.37777 15.7085C5.56264 14.6146 7.16967 14 8.84534 14C10.521 14 12.128 14.6146 13.3129 15.7085C14.4978 16.8025 15.1634 18.2862 15.1634 19.8333C15.1634 20.1428 15.2966 20.4395 15.5335 20.6583C15.7705 20.8771 16.0919 21 16.4271 21C16.7622 21 17.0836 20.8771 17.3206 20.6583C17.5575 20.4395 17.6907 20.1428 17.6907 19.8333C17.6907 17.6674 16.7588 15.5902 15.0999 14.0586C13.4411 12.5271 11.1913 11.6667 8.84534 11.6667Z" fill="#3F4662"/>
</svg>
