<svg width="18" height="18" viewBox="0 0 20 20" fill="none" xmlns="http://www.w3.org/2000/svg">
<path fill-rule="evenodd" clip-rule="evenodd" d="M9.37556 0C8.68444 0 8.12444 0.56 8.12444 1.25L7.97444 2.3C7.94369 2.51479 7.85755 2.71787 7.7245 2.88927C7.59145 3.06067 7.41608 3.19449 7.21564 3.27756C7.01519 3.36063 6.79657 3.3901 6.58128 3.36306C6.36599 3.33601 6.16145 3.2534 5.98778 3.12333L5.13889 2.48667C5.02282 2.37059 4.88502 2.27852 4.73336 2.2157C4.5817 2.15288 4.41915 2.12054 4.255 2.12054C4.09085 2.12054 3.9283 2.15288 3.77664 2.2157C3.62498 2.27852 3.48718 2.37059 3.37111 2.48667L2.48667 3.37111C1.99778 3.86 1.99778 4.65 2.48667 5.13778L3.12333 5.98778C3.25338 6.16138 3.33602 6.36583 3.36312 6.58104C3.39022 6.79625 3.36085 7.01481 3.2779 7.21523C3.19495 7.41565 3.06128 7.59104 2.89002 7.72415C2.71876 7.85726 2.5158 7.94352 2.30111 7.97444L1.25 8.12556C0.56 8.12556 0 8.68445 0 9.37444V10.6256C0 11.3144 0.56 11.8744 1.25 11.8744L2.3 12.0256C2.51479 12.0563 2.71787 12.1425 2.88927 12.2755C3.06067 12.4085 3.19449 12.5839 3.27756 12.7844C3.36063 12.9848 3.3901 13.2034 3.36306 13.4187C3.33601 13.634 3.2534 13.8385 3.12333 14.0122L2.48667 14.8611C1.99778 15.35 1.99778 16.1411 2.48667 16.6289L3.37111 17.5133C3.86 18.0022 4.65 18.0022 5.13778 17.5133L5.98778 16.8767C6.16138 16.7466 6.36583 16.664 6.58104 16.6369C6.79625 16.6098 7.01481 16.6392 7.21523 16.7221C7.41565 16.805 7.59104 16.9387 7.72415 17.11C7.85726 17.2812 7.94352 17.4842 7.97444 17.6989L8.12556 18.75C8.12556 19.44 8.68445 20 9.37444 20H10.6256C11.3144 20 11.8744 19.44 11.8744 18.75L12.0256 17.7C12.0563 17.4852 12.1425 17.2821 12.2755 17.1107C12.4085 16.9393 12.5839 16.8055 12.7844 16.7224C12.9848 16.6394 13.2034 16.6099 13.4187 16.6369C13.634 16.664 13.8385 16.7466 14.0122 16.8767L14.8611 17.5133C15.35 18.0022 16.1411 18.0022 16.6289 17.5133L17.5133 16.6289C18.0011 16.14 18.0011 15.35 17.5133 14.8622L16.8767 14.0122C16.7466 13.8386 16.664 13.6342 16.6369 13.419C16.6098 13.2038 16.6392 12.9852 16.7221 12.7848C16.805 12.5844 16.9387 12.409 17.11 12.2759C17.2812 12.1427 17.4842 12.0565 17.6989 12.0256L18.75 11.8744C19.44 11.8744 20 11.3156 20 10.6256V9.37444C20 8.68556 19.44 8.12556 18.75 8.12556L17.7 7.97444C17.4852 7.94369 17.2821 7.85755 17.1107 7.7245C16.9393 7.59145 16.8055 7.41608 16.7224 7.21564C16.6394 7.01519 16.6099 6.79657 16.6369 6.58128C16.664 6.36599 16.7466 6.16145 16.8767 5.98778L17.5133 5.13889C18.0011 4.65 18.0011 3.85889 17.5133 3.37111L16.6289 2.48667C16.3945 2.25258 16.0768 2.1211 15.7456 2.1211C15.4143 2.1211 15.0966 2.25258 14.8622 2.48667L14.0122 3.12333C13.8386 3.25338 13.6342 3.33602 13.419 3.36312C13.2038 3.39022 12.9852 3.36085 12.7848 3.2779C12.5844 3.19495 12.409 3.06128 12.2759 2.89002C12.1427 2.71876 12.0565 2.5158 12.0256 2.30111L11.8744 1.25C11.8744 0.56 11.3156 0 10.6256 0H9.37556ZM10 12.5C10.663 12.5 11.2989 12.2366 11.7678 11.7678C12.2366 11.2989 12.5 10.663 12.5 10C12.5 9.33696 12.2366 8.70107 11.7678 8.23223C11.2989 7.76339 10.663 7.5 10 7.5C9.33696 7.5 8.70107 7.76339 8.23223 8.23223C7.76339 8.70107 7.5 9.33696 7.5 10C7.5 10.663 7.76339 11.2989 8.23223 11.7678C8.70107 12.2366 9.33696 12.5 10 12.5Z" fill="white"/>
</svg>
