<svg width="40" height="40" viewBox="0 0 40 40" fill="none" xmlns="http://www.w3.org/2000/svg">
<g clip-path="url(#clip0_390_155)">
<path fill-rule="evenodd" clip-rule="evenodd" d="M31.3333 40H8.66668C7.52792 40.0023 6.39992 39.7797 5.3474 39.3449C4.29489 38.9102 3.33858 38.2719 2.53335 37.4667C1.72812 36.6615 1.08983 35.7051 0.655094 34.6526C0.220359 33.6001 -0.00225787 32.4721 1.7264e-05 31.3333V8.66668C-0.00225787 7.52792 0.220359 6.39992 0.655094 5.3474C1.08983 4.29489 1.72812 3.33858 2.53335 2.53335C3.33858 1.72812 4.29489 1.08983 5.3474 0.655094C6.39992 0.220359 7.52792 -0.00225787 8.66668 1.7264e-05H31.3333C32.4721 -0.00225787 33.6001 0.220359 34.6526 0.655094C35.7051 1.08983 36.6615 1.72812 37.4667 2.53335C38.2719 3.33858 38.9102 4.29489 39.3449 5.3474C39.7797 6.39992 40.0023 7.52792 40 8.66668V31.3333C40.0023 32.4721 39.7797 33.6001 39.3449 34.6526C38.9102 35.7051 38.2719 36.6615 37.4667 37.4667C36.6615 38.2719 35.7051 38.9102 34.6526 39.3449C33.6001 39.7797 32.4721 40.0023 31.3333 40Z" fill="white"/>
<path fill-rule="evenodd" clip-rule="evenodd" d="M7.89314 14.7158H13.5787C14.9967 14.72 16.3553 15.2851 17.358 16.2877C18.3606 17.2904 18.9257 18.649 18.9299 20.067C18.9257 21.4849 18.3606 22.8436 17.358 23.8462C16.3553 24.8488 14.9967 25.414 13.5787 25.4181H7.89314C6.4752 25.414 5.11653 24.8488 4.11389 23.8462C3.11125 22.8436 2.54614 21.4849 2.54199 20.067C2.54614 18.649 3.11125 17.2904 4.11389 16.2877C5.11653 15.2851 6.4752 14.72 7.89314 14.7158Z" fill="url(#paint0_linear_390_155)" fill-opacity="0.25"/>
<path fill-rule="evenodd" clip-rule="evenodd" d="M26.2877 14.7158H31.9733C33.3912 14.72 34.7499 15.2851 35.7525 16.2877C36.7551 17.2904 37.3202 18.649 37.3244 20.067C37.3202 21.4849 36.7551 22.8436 35.7525 23.8462C34.7499 24.8488 33.3912 25.414 31.9733 25.4181H26.2877C24.8697 25.414 23.5111 24.8488 22.5084 23.8462C21.5058 22.8436 20.9407 21.4849 20.9365 20.067C20.9407 18.649 21.5058 17.2904 22.5084 16.2877C23.5111 15.2851 24.8697 14.72 26.2877 14.7158Z" fill="url(#paint1_linear_390_155)" fill-opacity="0.25"/>
<path fill-rule="evenodd" clip-rule="evenodd" d="M14.582 13.7125V8.02692C14.5862 6.60899 15.1513 5.25032 16.1539 4.24768C17.1566 3.24504 18.5152 2.67993 19.9332 2.67578C21.3511 2.67993 22.7098 3.24504 23.7124 4.24767C24.715 5.25031 25.2802 6.60899 25.2843 8.02692V13.7125C25.2802 15.1305 24.715 16.4891 23.7124 17.4918C22.7098 18.4944 21.3511 19.0595 19.9332 19.0637C18.5152 19.0595 17.1566 18.4944 16.1539 17.4917C15.1513 16.4891 14.5862 15.1304 14.582 13.7125Z" fill="url(#paint2_linear_390_155)" fill-opacity="0.25"/>
<path fill-rule="evenodd" clip-rule="evenodd" d="M25.2843 26.4215V32.107C25.2802 33.525 24.715 34.8837 23.7124 35.8863C22.7098 36.8889 21.3511 37.454 19.9332 37.4582C18.5152 37.454 17.1566 36.8889 16.1539 35.8863C15.1513 34.8837 14.5862 33.525 14.582 32.107V26.4215C14.5862 25.0035 15.1513 23.6449 16.1539 22.6422C17.1566 21.6396 18.5152 21.0745 19.9332 21.0703C21.3511 21.0745 22.7098 21.6396 23.7124 22.6422C24.715 23.6448 25.2802 25.0035 25.2843 26.4215Z" fill="url(#paint3_linear_390_155)" fill-opacity="0.25"/>
<path fill-rule="evenodd" clip-rule="evenodd" d="M11.6388 19.3312L7.62548 15.3179C6.62923 14.3123 6.07031 12.9541 6.07031 11.5386C6.07031 10.1231 6.62923 8.76491 7.62548 7.75939C8.63101 6.76314 9.98925 6.20422 11.4047 6.20422C12.8202 6.20422 14.1785 6.76314 15.184 7.75939L19.1974 11.7727C20.1936 12.7783 20.7525 14.1365 20.7525 15.552C20.7525 16.9675 20.1936 18.3257 19.1974 19.3312C18.7076 19.839 18.1205 20.2428 17.4711 20.5186C16.8218 20.7944 16.1236 20.9366 15.4181 20.9366C14.7126 20.9366 14.0144 20.7944 13.3651 20.5186C12.7157 20.2428 12.1286 19.839 11.6388 19.3312Z" fill="url(#paint4_linear_390_155)" fill-opacity="0.25"/>
<path fill-rule="evenodd" clip-rule="evenodd" d="M28.2275 20.8028L32.2408 24.8162C33.2371 25.8217 33.796 27.1799 33.796 28.5954C33.796 30.0109 33.2371 31.3691 32.2408 32.3746C31.2353 33.3709 29.877 33.9298 28.4616 33.9298C27.0461 33.9298 25.6878 33.3709 24.6823 32.3746L20.6689 28.3613C19.6727 27.3558 19.1138 25.9975 19.1138 24.582C19.1138 23.1666 19.6727 21.8083 20.6689 20.8028C21.1587 20.295 21.7458 19.8912 22.3951 19.6154C23.0445 19.3395 23.7427 19.1974 24.4482 19.1974C25.1537 19.1974 25.8519 19.3395 26.5013 19.6154C27.1506 19.8912 27.7377 20.295 28.2275 20.8028Z" fill="url(#paint5_linear_390_155)" fill-opacity="0.25"/>
<path fill-rule="evenodd" clip-rule="evenodd" d="M20.6688 11.7728L24.6822 7.75938C25.6877 6.76313 27.0459 6.20422 28.4614 6.20422C29.8769 6.20422 31.2351 6.76313 32.2407 7.75938C33.2369 8.76491 33.7958 10.1231 33.7958 11.5386C33.7958 12.9541 33.2369 14.3123 32.2407 15.3179L28.2273 19.3312C27.2218 20.3275 25.8636 20.8864 24.4481 20.8864C23.0326 20.8864 21.6743 20.3275 20.6688 19.3312C20.1611 18.8414 19.7573 18.2543 19.4814 17.605C19.2056 16.9557 19.0635 16.2575 19.0635 15.552C19.0635 14.8465 19.2056 14.1483 19.4814 13.499C19.7573 12.8496 20.1611 12.2626 20.6688 11.7728Z" fill="url(#paint6_linear_390_155)" fill-opacity="0.25"/>
<path fill-rule="evenodd" clip-rule="evenodd" d="M19.1974 28.3612L15.184 32.3746C14.1785 33.3708 12.8202 33.9298 11.4047 33.9298C9.98925 33.9298 8.63101 33.3708 7.62548 32.3746C6.62923 31.3691 6.07031 30.0108 6.07031 28.5953C6.07031 27.1799 6.62923 25.8216 7.62548 24.8161L11.6388 20.8027C12.6444 19.8065 14.0026 19.2476 15.4181 19.2476C16.8336 19.2476 18.1918 19.8065 19.1974 20.8027C19.7051 21.2925 20.1089 21.8796 20.3848 22.5289C20.6606 23.1783 20.8027 23.8765 20.8027 24.582C20.8027 25.2875 20.6606 25.9857 20.3848 26.635C20.1089 27.2843 19.7051 27.8714 19.1974 28.3612Z" fill="url(#paint7_linear_390_155)" fill-opacity="0.25"/>
<g style="mix-blend-mode:multiply">
<path fill-rule="evenodd" clip-rule="evenodd" d="M7.89314 14.7158H13.5787C14.9967 14.72 16.3553 15.2851 17.358 16.2877C18.3606 17.2904 18.9257 18.649 18.9299 20.067C18.9257 21.4849 18.3606 22.8436 17.358 23.8462C16.3553 24.8488 14.9967 25.414 13.5787 25.4181H7.89314C6.4752 25.414 5.11653 24.8488 4.11389 23.8462C3.11125 22.8436 2.54614 21.4849 2.54199 20.067C2.54614 18.649 3.11125 17.2904 4.11389 16.2877C5.11653 15.2851 6.4752 14.72 7.89314 14.7158Z" fill="#BC83D7"/>
</g>
<g style="mix-blend-mode:multiply">
<path fill-rule="evenodd" clip-rule="evenodd" d="M26.2877 14.7158H31.9733C33.3912 14.72 34.7499 15.2851 35.7525 16.2877C36.7551 17.2904 37.3202 18.649 37.3244 20.067C37.3202 21.4849 36.7551 22.8436 35.7525 23.8462C34.7499 24.8488 33.3912 25.414 31.9733 25.4181H26.2877C24.8697 25.414 23.5111 24.8488 22.5084 23.8462C21.5058 22.8436 20.9407 21.4849 20.9365 20.067C20.9407 18.649 21.5058 17.2904 22.5084 16.2877C23.5111 15.2851 24.8697 14.72 26.2877 14.7158Z" fill="#D0A563"/>
</g>
<g style="mix-blend-mode:multiply">
<path fill-rule="evenodd" clip-rule="evenodd" d="M25.2843 8.02692V13.7125C25.2802 15.1305 24.715 16.4891 23.7124 17.4918C22.7098 18.4944 21.3511 19.0595 19.9332 19.0637C18.5152 19.0595 17.1565 18.4944 16.1539 17.4918C15.1513 16.4891 14.5862 15.1304 14.582 13.7125V8.02692C14.5862 6.60899 15.1513 5.25032 16.1539 4.24768C17.1566 3.24504 18.5152 2.67993 19.9332 2.67578C21.3511 2.67993 22.7098 3.24504 23.7124 4.24767C24.715 5.25031 25.2802 6.60899 25.2843 8.02692Z" fill="#D8A353"/>
</g>
<g style="mix-blend-mode:multiply">
<path fill-rule="evenodd" clip-rule="evenodd" d="M25.2843 26.4215V32.107C25.2802 33.525 24.715 34.8837 23.7124 35.8863C22.7098 36.8889 21.3511 37.454 19.9332 37.4582C18.5152 37.454 17.1566 36.8889 16.1539 35.8863C15.1513 34.8837 14.5862 33.525 14.582 32.107V26.4215C14.5862 25.0035 15.1513 23.6449 16.1539 22.6422C17.1566 21.6396 18.5152 21.0745 19.9332 21.0703C21.3511 21.0745 22.7098 21.6396 23.7124 22.6422C24.715 23.6448 25.2802 25.0035 25.2843 26.4215Z" fill="#79DBCF"/>
</g>
<g style="mix-blend-mode:multiply">
<path fill-rule="evenodd" clip-rule="evenodd" d="M15.184 7.75938L19.1974 11.7728C20.1936 12.7783 20.7525 14.1365 20.7525 15.552C20.7525 16.9675 20.1936 18.3257 19.1974 19.3312C18.1918 20.3275 16.8336 20.8864 15.4181 20.8864C14.0026 20.8864 12.6444 20.3275 11.6388 19.3312L7.62548 15.3179C6.62923 14.3123 6.07031 12.9541 6.07031 11.5386C6.07031 10.1231 6.62923 8.76492 7.62548 7.75939C8.63101 6.76314 9.98924 6.20423 11.4047 6.20422C12.8202 6.20422 14.1785 6.76313 15.184 7.75938Z" fill="#F3B85E"/>
</g>
<g style="mix-blend-mode:multiply">
<path fill-rule="evenodd" clip-rule="evenodd" d="M28.2275 20.8028L32.2408 24.8162C33.2371 25.8217 33.796 27.1799 33.796 28.5954C33.796 30.0109 33.2371 31.3691 32.2408 32.3746C31.2353 33.3709 29.877 33.9298 28.4616 33.9298C27.0461 33.9298 25.6878 33.3709 24.6823 32.3746L20.6689 28.3613C19.6727 27.3558 19.1138 25.9975 19.1138 24.582C19.1138 23.1666 19.6727 21.8083 20.6689 20.8028C21.1587 20.295 21.7458 19.8912 22.3951 19.6154C23.0445 19.3395 23.7427 19.1974 24.4482 19.1974C25.1537 19.1974 25.8519 19.3395 26.5013 19.6154C27.1506 19.8912 27.7377 20.295 28.2275 20.8028Z" fill="#5FE4D4"/>
</g>
<g style="mix-blend-mode:multiply">
<path fill-rule="evenodd" clip-rule="evenodd" d="M32.2408 15.3179L28.2275 19.3312C27.2219 20.3275 25.8637 20.8864 24.4482 20.8864C23.0327 20.8864 21.6745 20.3275 20.6689 19.3312C19.6727 18.3257 19.1138 16.9675 19.1138 15.552C19.1138 14.1365 19.6727 12.7783 20.6689 11.7728L24.6823 7.75938C25.6878 6.76313 27.0461 6.20422 28.4616 6.20422C29.877 6.20422 31.2353 6.76313 32.2408 7.75938C33.2371 8.76491 33.796 10.1231 33.796 11.5386C33.796 12.9541 33.2371 14.3123 32.2408 15.3179Z" fill="#EDA02C"/>
</g>
<g style="mix-blend-mode:multiply">
<path fill-rule="evenodd" clip-rule="evenodd" d="M19.1974 28.3612L15.184 32.3746C14.1785 33.3708 12.8202 33.9298 11.4047 33.9298C9.98925 33.9298 8.63101 33.3708 7.62548 32.3746C6.62923 31.3691 6.07031 30.0108 6.07031 28.5953C6.07031 27.1799 6.62923 25.8216 7.62548 24.8161L11.6388 20.8027C12.6444 19.8065 14.0026 19.2476 15.4181 19.2476C16.8336 19.2476 18.1918 19.8065 19.1974 20.8027C19.7051 21.2925 20.1089 21.8796 20.3848 22.5289C20.6606 23.1783 20.8027 23.8765 20.8027 24.582C20.8027 25.2875 20.6606 25.9857 20.3848 26.635C20.1089 27.2843 19.7051 27.8714 19.1974 28.3612Z" fill="#AD59D4"/>
</g>
<g style="mix-blend-mode:overlay">
<path fill-rule="evenodd" clip-rule="evenodd" d="M7.89314 14.7158H13.5787C14.9967 14.72 16.3553 15.2851 17.358 16.2877C18.3606 17.2904 18.9257 18.649 18.9299 20.067C18.9257 21.4849 18.3606 22.8436 17.358 23.8462C16.3553 24.8489 14.9967 25.414 13.5787 25.4181H7.89314C6.4752 25.414 5.11652 24.8489 4.11389 23.8462C3.11125 22.8436 2.54614 21.4849 2.54199 20.067C2.54614 18.649 3.11125 17.2904 4.11389 16.2877C5.11652 15.2851 6.4752 14.72 7.89314 14.7158Z" fill="url(#paint8_linear_390_155)" fill-opacity="0.25"/>
<path fill-rule="evenodd" clip-rule="evenodd" d="M26.2877 14.7158H31.9733C33.3912 14.72 34.7499 15.2851 35.7525 16.2877C36.7551 17.2904 37.3202 18.649 37.3244 20.067C37.3202 21.4849 36.7551 22.8436 35.7525 23.8462C34.7499 24.8488 33.3912 25.414 31.9733 25.4181H26.2877C24.8697 25.414 23.5111 24.8489 22.5084 23.8462C21.5058 22.8436 20.9407 21.4849 20.9365 20.067C20.9407 18.649 21.5058 17.2904 22.5084 16.2877C23.5111 15.2851 24.8697 14.72 26.2877 14.7158Z" fill="url(#paint9_linear_390_155)" fill-opacity="0.25"/>
<path fill-rule="evenodd" clip-rule="evenodd" d="M14.582 13.7125V8.02692C14.5862 6.60899 15.1513 5.25032 16.1539 4.24768C17.1566 3.24504 18.5152 2.67993 19.9332 2.67578C21.3511 2.67993 22.7098 3.24504 23.7124 4.24767C24.715 5.25031 25.2802 6.60899 25.2843 8.02692V13.7125C25.2802 15.1305 24.715 16.4891 23.7124 17.4918C22.7098 18.4944 21.3511 19.0595 19.9332 19.0637C18.5152 19.0595 17.1566 18.4944 16.1539 17.4918C15.1513 16.4891 14.5862 15.1304 14.582 13.7125Z" fill="url(#paint10_linear_390_155)" fill-opacity="0.25"/>
<path fill-rule="evenodd" clip-rule="evenodd" d="M25.2843 26.4215V32.107C25.2802 33.525 24.715 34.8837 23.7124 35.8863C22.7098 36.8889 21.3511 37.454 19.9332 37.4582C18.5152 37.454 17.1566 36.8889 16.1539 35.8863C15.1513 34.8837 14.5862 33.525 14.582 32.107V26.4215C14.5862 25.0035 15.1513 23.6448 16.1539 22.6422C17.1566 21.6396 18.5152 21.0745 19.9332 21.0703C21.3511 21.0745 22.7098 21.6396 23.7124 22.6422C24.715 23.6449 25.2801 25.0035 25.2843 26.4215Z" fill="url(#paint11_linear_390_155)" fill-opacity="0.25"/>
<path fill-rule="evenodd" clip-rule="evenodd" d="M11.6388 19.3312L7.62548 15.3179C6.62923 14.3123 6.07031 12.9541 6.07031 11.5386C6.07031 10.1231 6.62923 8.76491 7.62548 7.75939C8.63101 6.76314 9.98925 6.20422 11.4047 6.20422C12.8202 6.20422 14.1785 6.76314 15.184 7.75939L19.1974 11.7727C20.1936 12.7783 20.7525 14.1365 20.7525 15.552C20.7525 16.9675 20.1936 18.3257 19.1974 19.3312C18.7075 19.839 18.1205 20.2428 17.4711 20.5186C16.8218 20.7944 16.1236 20.9365 15.4181 20.9365C14.7126 20.9365 14.0144 20.7944 13.3651 20.5186C12.7157 20.2428 12.1286 19.839 11.6388 19.3312Z" fill="url(#paint12_linear_390_155)" fill-opacity="0.25"/>
<path fill-rule="evenodd" clip-rule="evenodd" d="M28.1606 20.8028L32.1739 24.8161C33.1702 25.8217 33.7291 27.1799 33.7291 28.5954C33.7291 30.0109 33.1702 31.3691 32.1739 32.3746C31.1684 33.3709 29.8101 33.9298 28.3947 33.9298C26.9792 33.9298 25.6209 33.3709 24.6154 32.3746L20.602 28.3612C19.6058 27.3557 19.0469 25.9975 19.0469 24.582C19.0469 23.1665 19.6058 21.8083 20.602 20.8028C21.0918 20.295 21.6789 19.8912 22.3283 19.6154C22.9776 19.3395 23.6758 19.1974 24.3813 19.1974C25.0868 19.1974 25.785 19.3395 26.4344 19.6154C27.0837 19.8912 27.6708 20.295 28.1606 20.8028Z" fill="url(#paint13_linear_390_155)" fill-opacity="0.25"/>
<path fill-rule="evenodd" clip-rule="evenodd" d="M20.6022 11.7727L24.6155 7.75939C25.6211 6.76314 26.9793 6.20422 28.3948 6.20422C29.8103 6.20422 31.1685 6.76314 32.174 7.75939C33.1703 8.76492 33.7292 10.1231 33.7292 11.5386C33.7292 12.9541 33.1703 14.3123 32.174 15.3179L28.1607 19.3312C27.1551 20.3275 25.7969 20.8864 24.3814 20.8864C22.9659 20.8864 21.6077 20.3275 20.6022 19.3312C19.6058 18.3257 19.0469 16.9675 19.0469 15.552C19.0469 14.1365 19.6058 12.7782 20.6022 11.7727Z" fill="url(#paint14_linear_390_155)" fill-opacity="0.25"/>
<path fill-rule="evenodd" clip-rule="evenodd" d="M19.1974 28.3613L15.184 32.3747C14.1785 33.3709 12.8202 33.9299 11.4047 33.9299C9.98925 33.9299 8.63101 33.3709 7.62548 32.3747C6.62923 31.3692 6.07031 30.0109 6.07031 28.5954C6.07031 27.18 6.62923 25.8217 7.62548 24.8162L11.6388 20.8028C12.6444 19.8066 14.0026 19.2477 15.4181 19.2477C16.8336 19.2477 18.1918 19.8066 19.1974 20.8028C20.1936 21.8084 20.7526 23.1666 20.7526 24.5821C20.7526 25.9976 20.1936 27.3558 19.1974 28.3613Z" fill="url(#paint15_linear_390_155)" fill-opacity="0.25"/>
</g>
<g style="mix-blend-mode:darken">
<path fill-rule="evenodd" clip-rule="evenodd" d="M14.7158 14.8496C15.7167 15.0645 16.6342 15.5638 17.358 16.2877C18.0819 17.0115 18.5812 17.929 18.796 18.9299C17.7903 18.7258 16.867 18.2299 16.1414 17.5043C15.4157 16.7786 14.9199 15.8553 14.7158 14.8496Z" fill="#BC83D7"/>
</g>
<g style="mix-blend-mode:darken">
<path fill-rule="evenodd" clip-rule="evenodd" d="M21.0703 21.2041C21.2852 22.2049 21.7845 23.1224 22.5083 23.8463C23.2322 24.5701 24.1497 25.0695 25.1506 25.2843C24.9465 24.2786 24.4507 23.3553 23.725 22.6296C22.9994 21.904 22.076 21.4081 21.0703 21.2041ZM21.0703 18.9298C21.2852 17.929 21.7845 17.0114 22.5083 16.2876C23.2322 15.5638 24.1497 15.0644 25.1506 14.8496C24.9357 15.8504 24.4363 16.7679 23.7124 17.4917C22.9886 18.2155 22.0712 18.7149 21.0703 18.9298ZM14.7158 25.2843C14.9307 24.2834 15.43 23.3659 16.1539 22.6421C16.8777 21.9182 17.7952 21.4189 18.7961 21.2041C18.5812 22.2049 18.0818 23.1224 17.358 23.8462C16.6341 24.57 15.7167 25.0694 14.7158 25.2843ZM12.5085 20.0669C13.3768 19.5101 14.3867 19.2141 15.4182 19.2141C16.4497 19.2141 17.4596 19.5101 18.3279 20.0669C17.4596 20.6238 16.4497 20.9198 15.4182 20.9198C14.3867 20.9198 13.3768 20.6238 12.5085 20.0669ZM21.5386 20.0669C22.4069 20.6238 23.4168 20.9198 24.4483 20.9198C25.4798 20.9198 26.4896 20.6238 27.3579 20.0669C26.4896 19.5101 25.4798 19.214 24.4483 19.214C23.4167 19.214 22.4069 19.5101 21.5386 20.0669ZM19.9332 18.4616C19.3764 17.5933 19.0804 16.5834 19.0804 15.5519C19.0804 14.5204 19.3764 13.5105 19.9332 12.6422C20.4901 13.5105 20.7861 14.5204 20.7861 15.5519C20.7861 16.5834 20.4901 17.5933 19.9332 18.4616ZM19.9332 27.4916C19.3764 26.6233 19.0804 25.6135 19.0804 24.582C19.0804 23.5504 19.3764 22.5406 19.9332 21.6723C20.4901 22.5406 20.7861 23.5504 20.7861 24.582C20.7861 25.6135 20.4901 26.6233 19.9332 27.4916Z" fill="#BC83D7"/>
</g>
</g>
<defs>
<linearGradient id="paint0_linear_390_155" x1="2.54425" y1="20.0683" x2="18.9266" y2="20.0683" gradientUnits="userSpaceOnUse">
<stop stop-color="white" stop-opacity="0"/>
<stop offset="1"/>
</linearGradient>
<linearGradient id="paint1_linear_390_155" x1="37.3216" y1="20.0683" x2="20.9392" y2="20.0683" gradientUnits="userSpaceOnUse">
<stop stop-color="white" stop-opacity="0"/>
<stop offset="1"/>
</linearGradient>
<linearGradient id="paint2_linear_390_155" x1="-13245.7" y1="2.6785" x2="-13245.7" y2="19.069" gradientUnits="userSpaceOnUse">
<stop stop-color="white" stop-opacity="0"/>
<stop offset="1"/>
</linearGradient>
<linearGradient id="paint3_linear_390_155" x1="19.931" y1="37.4612" x2="19.931" y2="21.0707" gradientUnits="userSpaceOnUse">
<stop stop-color="white" stop-opacity="0"/>
<stop offset="1"/>
</linearGradient>
<linearGradient id="paint4_linear_390_155" x1="-5989.94" y1="-1984.47" x2="-5978.35" y2="-1996.06" gradientUnits="userSpaceOnUse">
<stop stop-color="white" stop-opacity="0"/>
<stop offset="1"/>
</linearGradient>
<linearGradient id="paint5_linear_390_155" x1="-2852.78" y1="13776.6" x2="-2864.37" y2="13788.2" gradientUnits="userSpaceOnUse">
<stop stop-color="white" stop-opacity="0"/>
<stop offset="1"/>
</linearGradient>
<linearGradient id="paint6_linear_390_155" x1="-12889" y1="8130.28" x2="-12900.6" y2="8118.7" gradientUnits="userSpaceOnUse">
<stop stop-color="white" stop-opacity="0"/>
<stop offset="1"/>
</linearGradient>
<linearGradient id="paint7_linear_390_155" x1="2572.79" y1="4987.14" x2="2584.39" y2="4998.36" gradientUnits="userSpaceOnUse">
<stop stop-color="white" stop-opacity="0"/>
<stop offset="1"/>
</linearGradient>
<linearGradient id="paint8_linear_390_155" x1="2.51975" y1="20.0683" x2="18.9103" y2="20.0683" gradientUnits="userSpaceOnUse">
<stop stop-color="white" stop-opacity="0"/>
<stop offset="1"/>
</linearGradient>
<linearGradient id="paint9_linear_390_155" x1="37.3052" y1="20.0683" x2="20.9147" y2="20.0683" gradientUnits="userSpaceOnUse">
<stop stop-color="white" stop-opacity="0"/>
<stop offset="1"/>
</linearGradient>
<linearGradient id="paint10_linear_390_155" x1="-13245.7" y1="2.67852" x2="-13245.7" y2="19.069" gradientUnits="userSpaceOnUse">
<stop stop-color="white" stop-opacity="0"/>
<stop offset="1"/>
</linearGradient>
<linearGradient id="paint11_linear_390_155" x1="19.931" y1="37.4612" x2="19.931" y2="21.0707" gradientUnits="userSpaceOnUse">
<stop stop-color="white" stop-opacity="0"/>
<stop offset="1"/>
</linearGradient>
<linearGradient id="paint12_linear_390_155" x1="-5989.94" y1="-1984.47" x2="-5978.35" y2="-1996.06" gradientUnits="userSpaceOnUse">
<stop stop-color="white" stop-opacity="0"/>
<stop offset="1"/>
</linearGradient>
<linearGradient id="paint13_linear_390_155" x1="-2852.76" y1="13776.6" x2="-2864.35" y2="13788.2" gradientUnits="userSpaceOnUse">
<stop stop-color="white" stop-opacity="0"/>
<stop offset="1"/>
</linearGradient>
<linearGradient id="paint14_linear_390_155" x1="-12889" y1="8130.24" x2="-12900.6" y2="8118.65" gradientUnits="userSpaceOnUse">
<stop stop-color="white" stop-opacity="0"/>
<stop offset="1"/>
</linearGradient>
<linearGradient id="paint15_linear_390_155" x1="2572.78" y1="4987.13" x2="2584.38" y2="4998.35" gradientUnits="userSpaceOnUse">
<stop stop-color="white" stop-opacity="0"/>
<stop offset="1"/>
</linearGradient>
<clipPath id="clip0_390_155">
<rect width="40" height="40" fill="white"/>
</clipPath>
</defs>
</svg>
